<?xml version="1.0" encoding="utf-8"?>
<!-- Generator: Adobe Illustrator 28.1.0, SVG Export Plug-In . SVG Version: 6.00 Build 0)  -->
<svg version="1.1" id="Слой_1" xmlns="http://www.w3.org/2000/svg" xmlns:xlink="http://www.w3.org/1999/xlink" x="0px" y="0px"
	 viewBox="0 0 120 120" style="enable-background:new 0 0 120 120;" xml:space="preserve">
<style type="text/css">
	.st0{fill:#FFFFFF;}
</style>
<rect y="0" class="st0" width="120" height="120"/>
<g>
	<path d="M18.7,36.7c0,2.2-0.5,3.7-1.5,4.6c-1,0.9-2.5,1.4-4.6,1.4c-1.1,0-2-0.1-2.7-0.4C9.2,42,8.7,41.6,8.2,41s-0.7-1.2-0.8-1.9
		c-0.2-0.7-0.2-1.5-0.2-2.3v-0.9H11v0.6c0,1.1,0.1,1.9,0.4,2.4c0.2,0.5,0.7,0.8,1.5,0.8s1.2-0.3,1.5-0.8s0.4-1.3,0.4-2.4V22h4.1
		v14.7H18.7z"/>
	<path d="M25.2,36.2c0,0.5,0,1,0.1,1.4s0.2,0.8,0.4,1.1c0.2,0.3,0.4,0.6,0.7,0.7c0.3,0.2,0.7,0.3,1.2,0.3s0.9-0.1,1.2-0.3
		c0.3-0.2,0.5-0.4,0.7-0.7s0.3-0.7,0.4-1.1c0.1-0.4,0.1-0.9,0.1-1.4V22h4.1v14.2c0,1.3-0.2,2.4-0.5,3.2s-0.8,1.5-1.5,2
		c-0.6,0.5-1.3,0.8-2.1,1c-0.8,0.2-1.6,0.3-2.4,0.3s-1.6-0.1-2.4-0.2c-0.8-0.2-1.5-0.5-2.1-0.9s-1.1-1.1-1.5-2s-0.5-2-0.5-3.3V22
		h4.1C25.2,22,25.2,36.2,25.2,36.2z"/>
	<path d="M40,36.6c0,0.5,0,0.9,0.1,1.3c0.1,0.4,0.2,0.7,0.4,1s0.5,0.5,0.8,0.6c0.4,0.2,0.8,0.2,1.3,0.2c0.6,0,1.2-0.2,1.7-0.6
		c0.5-0.4,0.8-1,0.8-1.9c0-0.5-0.1-0.9-0.2-1.2c-0.1-0.3-0.3-0.6-0.6-0.9c-0.3-0.3-0.7-0.5-1.1-0.7c-0.5-0.2-1-0.4-1.7-0.7
		c-0.9-0.3-1.7-0.6-2.4-1s-1.2-0.8-1.7-1.3s-0.8-1-1-1.7c-0.2-0.6-0.3-1.4-0.3-2.2c0-2,0.6-3.5,1.7-4.5c1.1-1,2.7-1.5,4.6-1.5
		c0.9,0,1.8,0.1,2.5,0.3c0.8,0.2,1.4,0.5,2,1c0.6,0.4,1,1,1.3,1.7s0.5,1.5,0.5,2.5v0.6h-3.9c0-1-0.2-1.7-0.5-2.2s-0.9-0.8-1.7-0.8
		c-0.5,0-0.8,0.1-1.1,0.2s-0.5,0.3-0.7,0.5s-0.3,0.5-0.4,0.8c-0.1,0.3-0.1,0.6-0.1,0.9c0,0.6,0.1,1.2,0.4,1.6
		c0.3,0.4,0.8,0.8,1.7,1.2l3.2,1.4c0.8,0.3,1.4,0.7,1.9,1.1c0.5,0.4,0.9,0.8,1.2,1.2s0.5,0.9,0.6,1.4s0.2,1.1,0.2,1.7
		c0,2.1-0.6,3.7-1.9,4.7c-1.2,1-3,1.5-5.2,1.5c-2.3,0-4-0.5-5-1.5s-1.5-2.5-1.5-4.3v-1H40V36.6z"/>
	<path d="M63.4,25.4H59v17h-4.1v-17h-4.4V22h13L63.4,25.4L63.4,25.4z"/>
	<path d="M17.2,50l5.4,20.3h-4.3L17.4,66H12l-1,4.4H6.8L12.1,50H17.2z M16.7,62.7l-2-9.1h-0.1l-2,9.1C12.6,62.7,16.7,62.7,16.7,62.7
		z"/>
	<path d="M33.7,64L33.7,64l0.1-14h3.8v20.3h-4.7l-5-14.2h-0.1v14.2H24V50h4.7L33.7,64z"/>
	<path d="M40.2,55.9c0.1-1.3,0.5-2.4,0.9-3.3c0.5-0.9,1.2-1.7,2.1-2.2c0.9-0.5,2.1-0.8,3.7-0.8s2.8,0.3,3.7,0.8s1.6,1.2,2.1,2.2
		c0.5,0.9,0.8,2,0.9,3.3c0.1,1.3,0.2,2.7,0.2,4.3s-0.1,3-0.2,4.3c-0.1,1.3-0.5,2.4-0.9,3.3s-1.2,1.6-2.1,2.1
		c-0.9,0.5-2.1,0.7-3.7,0.7s-2.8-0.2-3.7-0.7s-1.6-1.2-2.1-2.1s-0.8-2-0.9-3.3S40,61.8,40,60.2C40,58.7,40,57.2,40.2,55.9z
		 M44.2,63.7c0.1,1,0.2,1.7,0.4,2.3s0.5,1,0.9,1.3s0.9,0.4,1.5,0.4s1.1-0.1,1.5-0.4s0.7-0.7,0.9-1.3c0.2-0.6,0.3-1.4,0.4-2.3
		c0.1-1,0.1-2.1,0.1-3.5s0-2.5-0.1-3.5c-0.1-0.9-0.2-1.7-0.4-2.3s-0.5-1-0.9-1.3s-0.9-0.4-1.5-0.4s-1.1,0.1-1.5,0.4
		c-0.4,0.3-0.7,0.7-0.9,1.3s-0.3,1.4-0.4,2.3c-0.1,1-0.1,2.1-0.1,3.5S44.1,62.7,44.2,63.7z"/>
	<path d="M68.1,53.4h-4.4v17h-4.1v-17h-4.4V50h13L68.1,53.4L68.1,53.4z"/>
	<path d="M74,50v7.8h4.8V50h4.1v20.3h-4.1v-9H74v9h-4.1V50H74z"/>
	<path d="M97.1,53.4h-7.3v4.8h6.8v3.4h-6.8V67h7.6v3.4H85.7V50h11.4V53.4z"/>
	<path d="M107,50c1.7,0,3,0.4,4,1.3s1.4,2.2,1.4,3.9c0,1.4-0.3,2.5-0.8,3.3s-1.4,1.4-2.6,1.7v0.1c1,0.2,1.8,0.5,2.3,1
		s0.8,1.3,0.9,2.5c0,0.4,0.1,0.8,0.1,1.2s0,0.9,0.1,1.5c0,1.1,0.1,1.9,0.2,2.5s0.4,1,0.7,1.2v0.2h-4.4c-0.2-0.3-0.3-0.6-0.4-1
		s-0.1-0.8-0.1-1.2l-0.1-3.9c0-0.8-0.2-1.4-0.6-1.9s-1-0.7-1.8-0.7h-2.2v8.6h-4.1V50H107z M105.3,58.9c1,0,1.7-0.2,2.3-0.7
		c0.5-0.5,0.8-1.2,0.8-2.4c0-1.9-1-2.8-2.8-2.8h-1.9v5.9H105.3z"/>
	<path d="M19.6,78v3.4h-7.3v4.8h6.8v3.4h-6.8v8.8H8.2V78H19.6z"/>
	<path d="M21.6,78h4.1v20.3h-4.1V78z"/>
	<path d="M28.7,78h4.1v17h7.3v3.4H28.7V78z"/>
	<path d="M48.1,78L51,92.4h0.1L54,78h6.1v20.3h-3.8V82.1h-0.1l-3.6,16.2h-3.2l-3.6-16.2h-0.1v16.2H42V78H48.1z"/>
	<path d="M68.3,81.7l3.5-1.1l0.7,2.2L69,83.9l2.2,3l-1.9,1.4l-2.1-3l-2.1,3l-1.9-1.4l2.2-3l-3.5-1.1l0.7-2.2l3.5,1.1V78h2.3
		L68.3,81.7L68.3,81.7z"/>
</g>
</svg>
